<svg version="1.2" xmlns="http://www.w3.org/2000/svg" viewBox="0 0 20 20" width="20" height="20">
	<title>Group 38166</title>
	<defs>
		<clipPath clipPathUnits="userSpaceOnUse" id="cp1">
			<path d="m0 0h20v20h-20z"/>
		</clipPath>
	</defs>
	<style>
		.s0 { fill: #f4a225 } 
	</style>
	<g id="Group 38166" clip-path="url(#cp1)">
		<path id="Path 58596" class="s0" d="m18.9 14.7l-1.9-2c-1.1-1-2.8-1-3.9 0-0.4 0.4-0.7 0.9-0.7 1.4-3.2-0.6-6.4-3.7-6.6-6.4 0.6-0.1 1.1-0.4 1.5-0.8 1-1.1 1-2.8 0-3.9l-2-1.9c-1-1.1-2.8-1.1-3.8 0-5.9 5.8 11.6 23.3 17.4 17.4 1.1-1 1.1-2.8 0-3.8z"/>
	</g>
</svg>