<svg version="1.2" xmlns="http://www.w3.org/2000/svg" viewBox="0 0 12 22" width="12" height="22">
	<title>facebook-logo</title>
	<style>
		.s0 { fill: #3b5998 } 
	</style>
	<g id="facebook-logo">
		<path id="Path 2" class="s0" d="m11.1 0h-2.6c-3 0-4.9 2.1-4.9 5.3v2.4h-2.6c-0.2 0-0.4 0.2-0.4 0.4v3.5c0 0.3 0.2 0.5 0.4 0.5h2.6v8.8c0 0.3 0.2 0.5 0.4 0.5h3.5c0.2 0 0.4-0.2 0.4-0.5v-8.8h3.1c0.2 0 0.4-0.2 0.4-0.5v-3.5q0-0.2-0.1-0.3-0.1-0.1-0.3-0.1h-3.1v-2.1c0-1 0.2-1.5 1.4-1.5h1.8c0.2 0 0.4-0.2 0.4-0.4v-3.3c0-0.2-0.2-0.4-0.4-0.4z"/>
	</g>
</svg>