<svg version="1.2" xmlns="http://www.w3.org/2000/svg" viewBox="0 0 22 22" width="22" height="22">
	<title>instagram (1)</title>
	<defs>
		<linearGradient id="g1" x1="2.7" y1="20.1" x2="20.1" y2="1.8" gradientUnits="userSpaceOnUse">
			<stop offset="0" stop-color="#ffd600"/>
			<stop offset=".5" stop-color="#ff0100"/>
			<stop offset="1" stop-color="#d800b9"/>
		</linearGradient>
		<linearGradient id="g2" x1="7.6" y1="15" x2="15.2" y2="7" gradientUnits="userSpaceOnUse">
			<stop offset="0" stop-color="#ff6400"/>
			<stop offset=".5" stop-color="#ff0100"/>
			<stop offset="1" stop-color="#fd0056"/>
		</linearGradient>
		<linearGradient id="g3" x1="16.1" y1="6.1" x2="17.8" y2="4.2" gradientUnits="userSpaceOnUse">
			<stop offset="0" stop-color="#f30072"/>
			<stop offset="1" stop-color="#e50097"/>
		</linearGradient>
	</defs>
	<style>
		.s0 { fill: url(#g1) } 
		.s1 { fill: url(#g2) } 
		.s2 { fill: url(#g3) } 
	</style>
	<g id="instagram (1)">
		<path id="Path 1555" fill-rule="evenodd" class="s0" d="m21.8 11c0 3 0 3.4-0.1 4.5 0 1.2-0.2 2-0.4 2.7-0.6 1.5-1.7 2.6-3.1 3.2-0.7 0.3-1.4 0.5-2.5 0.5-1.1 0.1-1.5 0.1-4.3 0.1-2.8 0-3.2 0-4.3-0.1-1.1 0-1.9-0.2-2.5-0.5q-1.1-0.4-1.9-1.3-0.8-0.8-1.2-1.9c-0.2-0.7-0.4-1.5-0.4-2.7-0.1-1.1-0.1-1.5-0.1-4.5 0-3 0-3.4 0.1-4.5 0-1.2 0.2-2 0.4-2.7q0.4-1.1 1.2-2 0.8-0.8 1.9-1.2c0.6-0.3 1.4-0.5 2.5-0.5 1.1-0.1 1.5-0.1 4.3-0.1 2.8 0 3.2 0 4.3 0.1 1.1 0 1.8 0.2 2.5 0.5q1.1 0.4 1.9 1.2 0.8 0.9 1.2 2c0.2 0.7 0.4 1.5 0.4 2.7 0.1 1.1 0.1 1.5 0.1 4.5zm-1.9 0c0-2.9 0-3.3 0-4.4-0.1-1.1-0.3-1.7-0.4-2.1q-0.2-0.7-0.8-1.3-0.5-0.5-1.2-0.8c-0.3-0.1-0.9-0.3-1.9-0.4-1.1 0-1.4 0-4.2 0-2.8 0-3.1 0-4.2 0-1 0.1-1.6 0.3-1.9 0.4q-0.7 0.3-1.2 0.8-0.6 0.6-0.8 1.3c-0.2 0.4-0.3 1-0.4 2.1 0 1.1 0 1.5 0 4.4 0 2.9 0 3.3 0 4.4 0.1 1.1 0.2 1.7 0.4 2.1q0.2 0.7 0.8 1.2 0.5 0.6 1.2 0.9c0.3 0.1 0.9 0.3 1.9 0.3 1.1 0.1 1.4 0.1 4.2 0.1 2.8 0 3.1 0 4.2-0.1 1 0 1.6-0.2 1.9-0.3 0.9-0.4 1.7-1.2 2-2.1 0.1-0.4 0.3-1 0.4-2.1 0-1.1 0-1.5 0-4.4z"/>
		<path id="Path 1556" fill-rule="evenodd" class="s1" d="m16.7 11c0 3.1-2.4 5.6-5.3 5.6-3 0-5.3-2.5-5.3-5.6 0-3.1 2.3-5.7 5.3-5.7 2.9 0 5.3 2.6 5.3 5.7zm-1.8 0c0-2-1.6-3.7-3.5-3.7-1.9 0-3.5 1.7-3.5 3.7 0 2 1.6 3.7 3.5 3.7 1.9 0 3.5-1.7 3.5-3.7z"/>
		<path id="Path 1557" class="s2" d="m18.2 5.1c0 0.8-0.6 1.3-1.2 1.3-0.7 0-1.3-0.5-1.3-1.3 0-0.7 0.6-1.3 1.3-1.3 0.6 0 1.2 0.6 1.2 1.3z"/>
	</g>
</svg>