<svg version="1.2" xmlns="http://www.w3.org/2000/svg" viewBox="0 0 21 21" width="21" height="21">
	<title>Group 228436</title>
	<style>
		.s0 { opacity: .1;fill: #01acf1 } 
		.s1 { fill: #01acf1 } 
	</style>
	<g id="Group 228436">
		<path id="Path 305226" class="s0" d="m1.1 9.2c-0.6 0-1-0.5-0.9-1.1 0.5-1.9 1.4-3.7 2.8-5.1 1.4-1.4 3.2-2.3 5.1-2.8 0.5-0.1 1.1 0.3 1.1 0.9 0.1 0.6-0.3 1.1-0.9 1.2-1.4 0.4-2.7 1.1-3.8 2.2-1.1 1.1-1.8 2.4-2.2 3.9-0.1 0.5-0.7 0.9-1.2 0.8z"/>
		<path id="Path 305227" class="s1" d="m1 10.5c-0.6 0-1.1 0.4-1 1 0.2 1.7 0.8 3.4 1.7 4.8 1.2 1.8 2.8 3.1 4.7 3.9 2 0.8 4.1 1 6.1 0.6 2.1-0.4 3.9-1.4 5.4-2.9 1.5-1.5 2.5-3.3 2.9-5.4 0.4-2 0.2-4.1-0.6-6.1-0.8-1.9-2.1-3.5-3.9-4.7-1.4-0.9-3.1-1.5-4.8-1.7-0.6-0.1-1 0.4-1 1 0 0.6 0.4 1.1 1 1.1 1.3 0.2 2.6 0.6 3.7 1.4 1.3 0.9 2.4 2.2 3.1 3.8 0.6 1.5 0.8 3.2 0.4 4.8-0.3 1.7-1.1 3.2-2.3 4.3-1.1 1.2-2.6 2-4.3 2.3-1.6 0.4-3.3 0.2-4.8-0.4-1.6-0.7-2.9-1.8-3.8-3.1-0.8-1.1-1.2-2.4-1.4-3.7 0-0.6-0.5-1-1.1-1z"/>
	</g>
</svg>