<svg version="1.2" xmlns="http://www.w3.org/2000/svg" viewBox="0 0 15 13" width="15" height="13">
	<title>Group 228522</title>
	<style>
		.s0 { opacity: 0;fill: none } 
		.s1 { fill: #e1dfdf } 
	</style>
	<g id="Group 228522">
		<path id="Rectangle 59957" class="s0" d="m0-1h15v15h-15z"/>
		<g id="stack">
			<path id="Path 305228" class="s1" d="m7.5 10.7q-0.4 0-0.9-0.1l-5.4-2.2-1 0.5c-0.2 0-0.2 0.2-0.2 0.2 0 0.1 0 0.2 0.2 0.3l6.9 2.7c0.2 0.1 0.6 0.1 0.8 0l6.9-2.7c0.2-0.1 0.2-0.2 0.2-0.3 0 0 0-0.2-0.2-0.3l-1-0.4-5.5 2.2q-0.4 0.1-0.8 0.1z"/>
			<path id="Path 305229" class="s1" d="m14.8 6.2l-1-0.4-1.8 0.7-0.8 0.3-0.8 0.3-2.1 0.8q-0.4 0.2-0.8 0.2-0.4 0-0.9-0.2l-2-0.8-0.8-0.3-0.8-0.3-1.8-0.7-1 0.4c-0.2 0.1-0.2 0.2-0.2 0.3 0 0.1 0 0.2 0.2 0.3l1 0.4 0.8 0.3 0.8 0.3 4.3 1.7c0.2 0.1 0.6 0.1 0.8 0l4.3-1.7 0.8-0.3 0.8-0.3 1-0.4c0.2-0.1 0.2-0.2 0.2-0.3 0-0.1 0-0.2-0.2-0.3z"/>
			<path id="Path 305230" class="s1" d="m14.8 3.6l-6.9-2.7q-0.2-0.1-0.4-0.1-0.2 0-0.4 0.1l-6.9 2.7c-0.2 0.1-0.2 0.2-0.2 0.3 0 0 0 0.2 0.2 0.2l1 0.5 0.8 0.3 0.8 0.3 1.8 0.7 0.8 0.3 0.7 0.3 1 0.4c0.2 0.1 0.6 0.1 0.8 0l1-0.4 0.7-0.3 0.8-0.3 1.8-0.7 0.8-0.3 0.8-0.3 1-0.5c0.2 0 0.2-0.2 0.2-0.2 0-0.1 0-0.2-0.2-0.3z"/>
		</g>
	</g>
</svg>