<svg version="1.2" xmlns="http://www.w3.org/2000/svg" viewBox="0 0 20 15" width="20" height="15">
	<title>Group 41169</title>
	<style>
		.s0 { fill: #ccd6dd } 
		.s1 { fill: #99aab5 } 
		.s2 { fill: #e1e8ed } 
	</style>
	<g id="Group 41169">
		<path id="Path 59136" class="s0" d="m20 12.2c0 1.3-1 2.2-2.2 2.2h-15.6c-1.2 0-2.2-0.9-2.2-2.2v-10c0-1.2 1-2.2 2.2-2.2h15.6c1.2 0 2.2 1 2.2 2.2z"/>
		<path id="Path 59137" class="s1" d="m19.7 13.3h-0.1l-6.2-6.3c-0.3-0.2-0.6-0.2-0.8 0-0.3 0.2-0.3 0.6 0 0.8l6.2 6.3h0.1q0.5-0.3 0.8-0.8zm-13.1-6.3l-6.3 6.3q0.3 0.5 0.8 0.8l6.3-6.3c0.2-0.2 0.2-0.6 0-0.8-0.2-0.2-0.5-0.2-0.8 0z"/>
		<path id="Path 59138" class="s1" d="m17.8 0h-15.6c-1.2 0-2.2 1-2.2 2.2v0.6l8.1 8c1 1.1 2.7 1.1 3.8 0l8.1-8v-0.6c0-1.2-1-2.2-2.2-2.2z"/>
		<path id="Path 59139" class="s2" d="m17.8 0h-15.6c-0.8 0-1.6 0.5-2 1.3l8.2 8.2c0.9 0.8 2.3 0.8 3.2 0l8.2-8.2c-0.4-0.8-1.2-1.3-2-1.3z"/>
	</g>
</svg>