<svg version="1.2" xmlns="http://www.w3.org/2000/svg" viewBox="0 0 20 20" width="20" height="20">
	<title>Group 38477</title>
	<defs>
		<clipPath clipPathUnits="userSpaceOnUse" id="cp1">
			<path d="m0 0h20v20h-20z"/>
		</clipPath>
	</defs>
	<style>
		.s0 { fill: #dd2e44 } 
		.s1 { fill: #99aab5 } 
	</style>
	<g id="Group 38477" clip-path="url(#cp1)">
		<path id="Path 59405" class="s0" d="m19.2 7.7c-0.9 1-2.5 1-3.5 0l-3.4-3.4c-1-1-0.9-2.6 0.1-3.5 0.9-0.9 2.4-0.9 3.3 0l3.5 3.5c1 0.9 1 2.5 0 3.4z"/>
		<path id="Path 59406" class="s1" d="m7.8 9.9c0 0-8.1 9.6-7.7 10 0.4 0.4 10-7.7 10-7.7z"/>
		<path id="Path 59407" class="s0" d="m14 15.5c-1 1-2.5 1-3.5 0.1v-0.1l-6.1-6c-0.9-1-0.9-2.6 0.1-3.5 1-1 2.5-1 3.4 0l6.1 6.1c1 0.9 1 2.5 0 3.4z"/>
	</g>
</svg>