<svg version="1.2" xmlns="http://www.w3.org/2000/svg" viewBox="0 0 23 39" width="23" height="39">
	<title>bars (1) copy</title>
	<style>
		.s0 { fill: #5d7f2a } 
		.s1 { fill: #f7e471 } 
		.s2 { fill: #f1cb66 } 
		.s3 { fill: #6f6f26 } 
	</style>
	<g id="bars (1) copy">
		<g id="Group 46108">
			<path id="Path 69335" class="s0" d="m2 31.6l8.5 6c0.8 0.6 1.9 0.6 2.7 0l8.5-6c0.6-0.5 1-1.8 1-2.6v-26.3c0-1.2-1.1-2.3-2.4-2.3h-17c-1.3 0-2.3 1.1-2.3 2.3v26.3c0 0.8 0.4 2.1 1 2.6z"/>
			<path id="Path 69336" class="s1" d="m11.6 23c0.1 0.1 0.3 0.1 0.4 0l10.7-8.2v-2.7l-10.7 7.5c-0.1 0.1-0.3 0.1-0.4 0l-10.6-7.5v2.7z"/>
			<path id="Path 69337" class="s1" d="m9.1 9.7q0.2 0.2 0.2 0.4l-0.1 1.3h5.3l-0.1-1.3q0-0.2 0.1-0.4l1.1-1.3c0.3-0.4 0.1-0.9-0.3-1l-1.7-0.4q-0.2-0.1-0.3-0.3l-1-1.5c-0.2-0.3-0.8-0.3-1 0l-0.9 1.5q-0.1 0.2-0.4 0.3l-1.7 0.4c-0.4 0.1-0.6 0.6-0.3 1z"/>
			<path id="Path 69338" class="s2" d="m1 14.8v1.4l10.6 7.5c0.1 0.1 0.3 0.1 0.4 0l10.7-7.5v-1.4l-10.7 7.5c-0.1 0.1-0.3 0.1-0.4 0z"/>
			<path id="Path 69339" class="s1" d="m11.6 31.8c0.1 0.1 0.3 0.1 0.4 0l10.7-8.2v-2.7l-10.7 7.6c-0.1 0.1-0.3 0.1-0.4 0l-10.6-7.6v2.7z"/>
			<path id="Path 69340" class="s2" d="m1 23.6v1.4l10.6 7.6c0.1 0.1 0.3 0.1 0.4 0l10.7-7.6v-1.4l-10.7 7.6c-0.1 0.1-0.3 0.1-0.4 0z"/>
			<path id="Path 69341" class="s3" d="m21.7 30.9l-8.5 6.1c-0.8 0.5-1.9 0.5-2.7 0l-8.5-6.1c-0.6-0.4-1-1.1-1-1.9v1.4c0 0.8 0.4 1.5 1 1.9l8.5 6.1c0.8 0.5 1.9 0.5 2.7 0l8.5-6.1c0.6-0.4 1-1.1 1-1.9v-1.4c0 0.8-0.4 1.5-1 1.9z"/>
			<g id="Group 46107">
				<path id="Path 69342" class="s2" d="m14.5 11.4l-2.4-1q-0.3-0.1-0.5 0l-2.4 1v0.5c-0.1 0.4 0.4 0.7 0.8 0.6l1.6-0.7q0.2-0.1 0.5 0l1.6 0.7c0.4 0.1 0.8-0.2 0.8-0.6z"/>
			</g>
		</g>
	</g>
</svg>