<svg version="1.2" xmlns="http://www.w3.org/2000/svg" viewBox="0 0 26 22" width="26" height="22">
	<title>twitter</title>
	<style>
		.s0 { fill: #00acee } 
	</style>
	<g id="twitter">
		<g id="Group 1">
			<path id="Path 1" class="s0" d="m25.4 2.8q-1.4 0.6-2.9 0.8c1-0.7 1.8-1.7 2.2-3q-1.5 1-3.2 1.3c-1-1-2.3-1.7-3.7-1.7-2.8 0-5.1 2.5-5.1 5.4q0 0.6 0.1 1.2c-4.2-0.2-7.9-2.3-10.4-5.6-0.5 0.8-0.7 1.7-0.7 2.7 0 1.9 0.9 3.5 2.2 4.5-0.8 0-1.6-0.3-2.3-0.7q0 0 0 0.1c0 2.6 1.8 4.8 4.1 5.2q-0.6 0.2-1.3 0.2-0.5 0-1-0.1c0.7 2.2 2.5 3.7 4.7 3.8-1.7 1.4-3.9 2.3-6.2 2.3q-0.7 0-1.3-0.1c2.3 1.5 5 2.4 7.8 2.4 9.4 0 14.5-8.2 14.5-15.3q0-0.3-0.1-0.7 1.5-1.1 2.6-2.7z"/>
		</g>
	</g>
</svg>